<?xml version="1.0" standalone="no"?>
<!DOCTYPE svg PUBLIC "-//W3C//DTD SVG 20010904//EN"
 "http://www.w3.org/TR/2001/REC-SVG-20010904/DTD/svg10.dtd">
<svg version="1.0" xmlns="http://www.w3.org/2000/svg"
 width="400.000000pt" height="96.000000pt" viewBox="0 0 400.000000 77.000000"
 preserveAspectRatio="xMidYMid meet">

<g transform="translate(0.000000,96.000000) scale(0.100000,-0.100000)"
fill="#000000" stroke="none">
<path d="M1115 762 c-46 -29 -71 -61 -101 -126 -32 -70 -43 -182 -25 -239 31
-93 135 -101 189 -16 l20 33 16 -35 c29 -66 66 -96 40 -32 -18 42 -23 147 -10
211 8 42 7 43 -12 33 -25 -14 -42 -61 -42 -121 0 -59 -32 -111 -78 -124 -87
-25 -116 110 -59 283 24 73 72 131 109 131 36 0 48 -18 48 -72 0 -50 12 -62
30 -29 41 78 -49 152 -125 103z"/>
<path d="M1338 770 c-53 -31 -71 -222 -31 -313 30 -64 70 -78 114 -40 14 11
18 11 28 -1 22 -26 68 -29 110 -8 38 20 39 20 44 1 8 -30 27 -22 43 19 34 86
35 87 45 71 5 -7 9 -24 9 -36 0 -12 11 -35 24 -50 25 -28 25 -28 56 -11 25 14
35 15 50 6 15 -10 27 -10 49 -1 24 9 33 8 42 -3 16 -20 34 -17 65 9 l27 23
-36 -4 -36 -4 -3 43 -3 44 -20 -40 c-24 -48 -61 -60 -70 -23 -12 49 31 106 69
92 9 -3 16 -1 16 5 0 6 -13 11 -29 11 -36 0 -76 -39 -94 -93 -18 -55 -50 -63
-66 -16 -6 18 -11 44 -11 58 -1 68 -38 62 -74 -12 l-25 -52 -1 63 c0 34 -4 62
-8 62 -20 0 -32 -28 -32 -77 0 -48 -3 -54 -26 -63 -39 -15 -62 -12 -86 12
l-23 23 37 6 c46 7 68 25 68 53 0 45 -38 58 -89 31 -33 -17 -56 -65 -47 -100
5 -20 2 -26 -19 -31 -31 -8 -53 9 -63 50 -7 26 -4 37 19 66 88 110 70 284 -23
230z m50 -70 c4 -49 -11 -110 -36 -148 -14 -21 -16 -22 -25 -7 -10 19 -2 122
14 173 16 50 43 39 47 -18z m131 -175 c3 -20 -23 -45 -47 -45 -9 0 -11 7 -6
23 14 48 45 61 53 22z"/>
<path d="M2120 766 c0 -8 12 -24 27 -33 43 -28 201 -25 271 6 67 30 67 42 0
25 -80 -21 -211 -16 -280 11 -13 5 -18 2 -18 -9z"/>
<path d="M2586 761 c-29 -32 -45 -91 -46 -166 0 -89 15 -141 50 -177 29 -29
48 -29 81 -1 14 11 18 11 29 -2 16 -19 69 -19 97 0 l22 16 3 -128 c3 -119 4
-125 16 -88 6 22 15 87 18 145 7 132 18 170 48 170 46 0 61 -49 27 -91 -19
-23 -19 -24 -40 -5 -19 17 -21 17 -21 2 0 -41 72 -31 95 14 21 40 19 76 -5
100 -26 26 -46 25 -75 -5 -23 -22 -25 -22 -25 -5 0 25 -17 35 -35 20 -10 -8
-15 -31 -15 -66 0 -49 -2 -55 -26 -64 -41 -16 -64 3 -64 51 0 22 5 50 11 62
10 19 7 18 -17 -5 -18 -18 -29 -41 -33 -70 -7 -48 -30 -61 -61 -33 -33 30 -35
71 -5 106 14 17 32 47 40 66 17 41 20 126 5 154 -14 24 -52 25 -74 0z m57 -33
c14 -50 -21 -173 -54 -194 -16 -9 -7 163 9 194 16 28 38 28 45 0z"/>
<path d="M463 758 c-13 -6 -25 -19 -28 -28 -5 -15 -20 -19 -81 -22 -69 -3 -79
-6 -100 -31 -23 -27 -24 -35 -24 -162 0 -77 5 -144 11 -158 22 -48 45 -52 289
-52 244 0 267 4 289 52 6 14 11 81 11 158 0 126 -1 135 -23 161 -20 23 -34 28
-86 32 -52 4 -67 9 -91 33 -25 26 -35 29 -87 28 -32 0 -68 -5 -80 -11z m167
-36 c24 -30 31 -32 88 -32 58 0 92 -15 92 -40 0 -5 3 -15 6 -24 5 -14 -6 -16
-89 -16 -71 0 -98 4 -107 15 -31 37 -150 37 -181 -1 -18 -21 -81 -18 -102 6
-9 11 -21 20 -27 20 -6 0 -18 -9 -27 -20 -21 -24 -48 -27 -39 -4 3 9 6 19 6
24 0 26 34 40 100 40 63 0 70 2 90 28 29 36 45 42 109 38 47 -2 59 -7 81 -34z
m-9 -121 c34 -34 39 -44 39 -86 0 -86 -54 -139 -142 -139 -37 0 -54 6 -74 25
-103 95 -46 238 95 239 37 0 49 -5 82 -39z m-291 9 c0 -13 -7 -20 -20 -20 -13
0 -20 7 -20 20 0 13 7 20 20 20 13 0 20 -7 20 -20z m-44 -25 c9 -8 19 -15 24
-15 5 0 15 7 24 15 8 8 27 15 41 15 22 0 26 -3 19 -17 -11 -23 -11 -123 0
-145 7 -16 1 -18 -73 -18 l-81 0 0 90 c0 75 3 90 16 90 8 0 22 -7 30 -15z
m534 -75 l0 -90 -84 0 -84 0 17 45 c15 41 15 49 0 90 l-17 45 84 0 84 0 0 -90z
m-379 -126 c30 -27 101 -30 151 -5 53 25 120 29 112 6 -4 -8 -9 -13 -13 -11
-4 3 -13 1 -21 -4 -12 -7 -12 -12 -3 -21 16 -16 67 16 59 37 -4 11 6 14 45 14
48 0 50 -1 44 -22 -16 -53 -17 -53 -285 -53 -268 0 -269 0 -285 53 -6 22 -5
22 86 22 71 0 97 -4 110 -16z"/>
<path d="M466 725 c-12 -12 -13 -21 -6 -36 9 -15 22 -19 69 -19 62 0 86 14 79
47 -5 25 -118 32 -142 8z m134 -20 c0 -8 -6 -15 -14 -15 -7 0 -33 -3 -58 -6
-37 -5 -45 -3 -45 9 0 9 4 14 9 11 4 -3 8 -1 8 4 0 4 23 9 50 11 39 2 50 -1
50 -14z"/>
<path d="M490 609 c-46 -19 -70 -50 -70 -91 0 -45 22 -93 49 -108 69 -36 171
23 171 100 0 34 -28 78 -60 95 -33 17 -54 18 -90 4z m117 -45 c40 -61 4 -139
-70 -151 -43 -7 -90 18 -85 45 2 9 -3 22 -11 28 -11 9 -12 12 -1 19 9 6 11 4
5 -6 -6 -11 -5 -12 5 -2 11 10 11 15 0 28 -11 13 -10 15 1 10 8 -3 22 7 34 25
17 25 26 30 62 30 35 0 46 -5 60 -26z"/>
<path d="M545 516 c-18 -13 -18 -14 -1 -32 17 -17 19 -17 31 -1 6 9 16 13 21
9 5 -4 0 3 -10 16 -23 26 -18 25 -41 8z"/>
<path d="M303 507 c-4 -8 -16 -17 -26 -20 -10 -4 -15 -11 -12 -17 4 -6 11 -8
16 -4 5 3 16 1 23 -5 10 -8 17 -6 30 8 16 17 16 20 1 35 -20 19 -22 20 -32 3z"/>
<path d="M280 451 c0 -5 7 -11 14 -14 10 -4 13 -1 9 9 -6 15 -23 19 -23 5z"/>
<path d="M2233 674 c-10 -16 -19 -53 -21 -90 -4 -59 -6 -63 -31 -66 -35 -4
-34 -32 1 -36 28 -3 29 -7 43 -97 12 -81 27 -74 21 11 l-6 81 52 12 c84 18 93
31 17 24 l-66 -6 8 64 c4 35 12 77 18 92 14 36 14 37 -4 37 -8 0 -22 -12 -32
-26z"/>
<path d="M2440 625 c-10 -12 -10 -19 -2 -27 13 -13 42 6 42 28 0 19 -24 18
-40 -1z"/>
<path d="M2706 623 c-4 -9 -2 -21 4 -27 13 -13 46 17 36 33 -11 16 -33 13 -40
-6z"/>
<path d="M3485 585 c29 -28 33 -77 11 -130 -24 -57 -42 -43 -66 53 -13 49 -34
63 -58 37 -9 -10 -11 -15 -4 -11 7 4 14 1 16 -6 2 -7 9 -32 15 -55 6 -22 19
-51 29 -63 15 -19 22 -21 39 -12 29 16 73 108 73 152 0 43 -14 60 -52 60 l-27
0 24 -25z"/>
<path d="M3023 563 c-15 -6 -19 -383 -4 -383 14 0 21 39 30 176 10 149 19 177
59 172 23 -3 27 -8 30 -38 2 -19 -4 -44 -12 -55 -14 -19 -15 -19 -33 -2 -22
19 -39 11 -22 -10 29 -34 93 4 105 63 4 21 0 37 -16 57 -28 35 -52 34 -84 -4
l-26 -31 0 31 c0 31 -4 34 -27 24z"/>
<path d="M2442 537 c-52 -55 -33 -137 32 -137 19 0 44 9 57 20 26 21 19 26
-12 9 -16 -8 -26 -7 -45 6 -29 18 -33 68 -8 103 20 29 3 28 -24 -1z"/>
<path d="M3210 528 c-26 -43 -25 -71 3 -104 50 -57 142 -16 140 61 -2 59 -52
97 -82 62 -8 -11 -5 -16 14 -25 14 -7 30 -23 37 -37 9 -21 8 -28 -7 -45 -23
-25 -40 -25 -65 0 -22 22 -26 70 -10 101 18 34 -9 22 -30 -13z"/>
<path d="M3612 544 c-44 -30 -66 -106 -40 -132 14 -14 64 -16 73 -2 4 6 15 4
29 -5 25 -17 62 -9 84 18 10 12 7 14 -25 13 -37 -1 -38 0 -43 39 l-5 40 -18
-43 c-14 -35 -22 -43 -40 -40 -17 2 -23 10 -25 40 -4 47 26 81 63 72 15 -4 25
-2 25 5 0 16 -52 13 -78 -5z"/>
</g>
</svg>
